<?xml version="1.0" encoding="utf-8"?>
<!-- Generator: Adobe Illustrator 19.0.0, SVG Export Plug-In . SVG Version: 6.00 Build 0)  -->
<svg version="1.1" id="图层_1" xmlns="http://www.w3.org/2000/svg" xmlns:xlink="http://www.w3.org/1999/xlink" x="0px" y="0px"
	 viewBox="-474 176 50 50" style="enable-background:new -474 176 50 50;" xml:space="preserve">
<style type="text/css">
	.st0{fill:#506473;}
</style>
<title>about hp</title>
<desc>Created with Sketch.</desc>
<g id="Group-4" transform="translate(5.000000, 5.000000)">
	<path id="Shape" class="st0" d="M-454,171.9c-13.3,0-24.1,10.8-24.1,24.1s10.8,24.1,24.1,24.1c13.3,0,24.1-10.8,24.1-24.1
		S-440.7,171.9-454,171.9z M-454,218c-12.2,0-22-9.9-22-22s9.9-22,22-22c12.2,0,22,9.9,22,22S-441.8,218-454,218z"/>
	<path id="Shape_1_" class="st0" d="M-454,190.8c-0.7,0-1.3,0.6-1.3,1.3v15.5c0,0.7,0.6,1.3,1.3,1.3c0.7,0,1.3-0.6,1.3-1.3v-15.5
		C-452.7,191.4-453.3,190.8-454,190.8z M-454,183c-1,0-1.8,0.8-1.8,1.8c0,0.6,0.3,1.2,0.9,1.5c0.3,0.2,0.6,0.2,0.9,0.2
		s0.6-0.1,0.9-0.2c0.5-0.3,0.9-0.9,0.9-1.5C-452.2,183.8-453,183-454,183L-454,183z"/>
</g>
</svg>
