<?xml version="1.0" encoding="utf-8"?>
<!-- Generator: Adobe Illustrator 19.0.0, SVG Export Plug-In . SVG Version: 6.00 Build 0)  -->
<svg version="1.1" id="图层_1" xmlns="http://www.w3.org/2000/svg" xmlns:xlink="http://www.w3.org/1999/xlink" x="0px" y="0px"
	 viewBox="-476 178 46 46" style="enable-background:new -476 178 46 46;" xml:space="preserve">
<style type="text/css">
	.st0{fill:#506473;}
</style>
<title>community</title>
<desc>Created with Sketch.</desc>
<path id="GLOBE" class="st0" d="M-447,221.1c1.6-1.7,3-4.2,4-7.1h6.5C-439.2,217.4-442.8,219.9-447,221.1L-447,221.1z M-469.5,214
	h6.5c1,2.9,2.4,5.4,4,7.1C-463.2,219.9-466.8,217.4-469.5,214L-469.5,214z M-459,180.9c-1.8,1.9-3.3,4.7-4.4,8.1h-6.9
	C-467.5,185.1-463.6,182.2-459,180.9L-459,180.9z M-435.8,189h-6.9c-1-3.4-2.5-6.2-4.4-8.1C-442.4,182.2-438.5,185.1-435.8,189
	L-435.8,189z M-441,200c-0.1-3.2-0.5-6.2-1.1-9h7.1c0.1,0,0.3,0,0.4-0.1c1.5,2.7,2.4,5.8,2.5,9.1H-441z M-452,212v-10h9
	c-0.1,3.7-0.6,7.1-1.5,10H-452z M-452,221.9V214h6.8C-446.8,218.4-449.2,221.3-452,221.9L-452,221.9z M-454,214v7.9
	c-2.8-0.6-5.2-3.5-6.8-7.9H-454z M-463,202h9v10h-7.5C-462.4,209.1-462.9,205.7-463,202L-463,202z M-454,191v9h-9
	c0.1-3.2,0.5-6.3,1.2-9H-454z M-454,180.1v8.9h-7.2C-459.6,184.1-457,180.7-454,180.1L-454,180.1z M-444.2,191
	c0.7,2.7,1.1,5.8,1.2,9h-9v-9H-444.2z M-452,189v-8.9c3,0.6,5.6,4,7.2,8.9H-452z M-471.5,191h7.6c-0.7,2.8-1.1,5.8-1.1,9h-9
	C-473.8,196.8-472.9,193.7-471.5,191L-471.5,191z M-474,202h9c0.1,3.6,0.6,7,1.4,10h-7.3C-472.7,209.1-473.8,205.7-474,202L-474,202
	z M-435.1,212h-7.3c0.8-3,1.3-6.4,1.4-10h9C-432.2,205.7-433.3,209.1-435.1,212L-435.1,212z M-453,178c-12.7,0-23,10.3-23,23
	s10.3,23,23,23s23-10.3,23-23S-440.3,178-453,178L-453,178z"/>
</svg>
