<?xml version="1.0" encoding="utf-8"?>
<!-- Generator: Adobe Illustrator 19.0.0, SVG Export Plug-In . SVG Version: 6.00 Build 0)  -->
<svg version="1.1" id="图层_1" xmlns="http://www.w3.org/2000/svg" xmlns:xlink="http://www.w3.org/1999/xlink" x="0px" y="0px"
	 viewBox="-472 175 54 52" style="enable-background:new -472 175 54 52;" xml:space="preserve">
<title>gift</title>
<desc>Created with Sketch.</desc>
<path id="Shape" d="M-442.9,198.7v-12.1c-0.6-0.1-1.2-0.1-1.7-0.2v0h-0.1l0,0h0.1v0h-0.1l0,0c0,0,0,0,0,0c-0.6,0.1-1.4,0.2-2.3,0.3
	v12h-24.4v-9.6c0-1.5,1.2-2.7,2.7-2.7h11.1c-3-0.6-5.2-1.9-5.3-4.3c-0.1-2.8,3-7.4,7.6-6.4c4.7,1.1,8,4.8,10.5,8
	c2.5-3.3,6.2-7.4,11.1-8.1c4.1-0.5,7.5,3.7,7.1,6.4c-0.4,2.4-2.7,3.7-5.6,4.4h11c1.5,0,2.7,1.2,2.7,2.7v9.6L-442.9,198.7
	L-442.9,198.7z M-454.8,178.2c-2.3-0.9-3.6,0.1-4.6,1.7c-0.5,0.9-1.1,2.1-0.3,3c2.2,2.3,8.2,2.1,12.2,1.7
	C-449.3,182.2-451.7,179.5-454.8,178.2L-454.8,178.2z M-429.9,182.9c1.6-2-1.5-6.3-4.8-4.7c-3.2,1.5-5.4,4-7.4,6.4
	c1.7,0.2,3.4,0.2,5.1,0.1C-435,184.6-431.1,184.4-429.9,182.9L-429.9,182.9z M-446.9,226.5h-19.9c-1.3,0-2.4-1.1-2.4-2.4v-23.4h22.3
	L-446.9,226.5L-446.9,226.5L-446.9,226.5z M-420.8,224.1c0,1.3-1.1,2.4-2.4,2.4h-19.9v-25.8h22.3V224.1L-420.8,224.1z"/>
</svg>
