<?xml version="1.0" encoding="utf-8"?>
<!-- Generator: Adobe Illustrator 19.0.0, SVG Export Plug-In . SVG Version: 6.00 Build 0)  -->
<svg version="1.1" id="图层_1" xmlns="http://www.w3.org/2000/svg" xmlns:xlink="http://www.w3.org/1999/xlink" x="0px" y="0px"
	 viewBox="-474 180 50 41" style="enable-background:new -474 180 50 41;" xml:space="preserve">
<style type="text/css">
	.st0{fill:#506473;}
</style>
<title>hp report</title>
<desc>Created with Sketch.</desc>
<g id="Group-3" transform="translate(5.272727, 9.227273)">
	<g id="Rectangle-24">
		<path class="st0" d="M-433.1,205.2h-42.4c-1.6,0-2.9-1.3-2.9-2.9v-27.9c0-1.6,1.3-2.9,2.9-2.9h42.4c1.6,0,2.9,1.3,2.9,2.9v27.9
			C-430.2,203.9-431.5,205.2-433.1,205.2z M-475.5,173.4c-0.6,0-1.1,0.5-1.1,1.1v27.9c0,0.6,0.5,1.1,1.1,1.1h42.4
			c0.6,0,1.1-0.5,1.1-1.1v-27.9c0-0.6-0.5-1.1-1.1-1.1H-475.5z"/>
	</g>
	<g id="Path-57">
		
			<rect x="-460.2" y="204.3" transform="matrix(0.9897 0.1432 -0.1432 0.9897 24.9579 67.936)" class="st0" width="1.8" height="6"/>
	</g>
	<g id="Path-57-Copy">
		
			<rect x="-452.2" y="206.4" transform="matrix(0.1433 0.9897 -0.9897 0.1433 -179.6547 622.1535)" class="st0" width="6" height="1.8"/>
	</g>
	<g id="Path-58">
		<path class="st0" d="M-446.2,211h-16.2c-0.5,0-0.9-0.4-0.9-0.9s0.4-0.9,0.9-0.9h16.2c0.5,0,0.9,0.4,0.9,0.9S-445.7,211-446.2,211z
			"/>
	</g>
	<g id="Path-17">
		<rect x="-476.3" y="197.3" class="st0" width="44.1" height="1.8"/>
	</g>
	<g id="Path-2">
		<polygon class="st0" points="-465.2,194 -466.6,192.9 -460.7,185.2 -453.4,190 -442.1,179.8 -440.9,181.1 -453.3,192.3 
			-460.3,187.6 		"/>
	</g>
</g>
</svg>
