<?xml version="1.0" encoding="utf-8"?>
<!-- Generator: Adobe Illustrator 19.0.0, SVG Export Plug-In . SVG Version: 6.00 Build 0)  -->
<svg version="1.1" id="图层_1" xmlns="http://www.w3.org/2000/svg" xmlns:xlink="http://www.w3.org/1999/xlink" x="0px" y="0px"
	 viewBox="-480 173 38 55" style="enable-background:new -480 173 38 55;" xml:space="preserve">
<style type="text/css">
	.st0{fill:#506473;}
</style>
<title>my step</title>
<desc>Created with Sketch.</desc>
<path id="Shape" class="st0" d="M-469,184.9c2.5-1.1,5.2-1.6,7.9-1.6c2.3,0,4.4,0.4,6.4,1.5c2.5,1.4,4.1,3.4,4.4,6.3
	c0.5,3.7-0.3,6.9-2.7,9.8c-0.7,0.8-1.4,1.7-2,2.5c-1.4,1.9-1.7,4-1.2,6.2c0.4,1.5,0.9,2.8,1.7,4.2c0.5,0.9,0.8,1.9,1,2.9
	c0.2,1.3,0.2,2.6-0.1,3.9c-0.4,1.7-1.1,3.2-2.4,4.5c-1.6,1.6-3.6,2.3-5.8,2.1c-3-0.3-5.5-1.5-7.3-4.1c-1.1-1.4-1.9-3-2.6-4.6
	c-1.9-4.4-3.3-8.9-4.5-13.5c-0.7-2.8-1-5.7-0.7-8.6c0.1-0.6,0.2-1.2,0.3-1.8C-475.7,190.1-473.1,186.8-469,184.9L-469,184.9z
	 M-473.8,205.9c1,4.2,1.7,6.6,3.5,10.6c0.4,0.9,2.8,8.4,9.3,8.8c2.9,0.2,5.9-3.6,5.7-6.3c-0.2-4.6-1.9-6-2.6-8.3
	c-0.5-1.7-0.6-4.5,0.4-6.8c1.2-2.8,5.5-6.1,5.3-10.5c-0.1-2.5-0.5-5.2-3.7-6.6c-4.6-2-10.1-0.8-12.3,0.3c-3.8,1.7-5.9,4.7-6.4,9.9
	C-475,200.3-474.4,203.3-473.8,205.9z M-448.6,177.1c2.6-1.1,5.2,0.2,6,2.9c0.8,3.1-1.1,6.7-4.2,7.7c-2.5,0.8-5-0.6-5.6-3.2
	c-0.3-1.2-0.1-2.4,0.3-3.7C-451.5,179.2-450.3,177.8-448.6,177.1L-448.6,177.1z M-450.5,183.5c0.3,1.6,1.7,2.4,3.2,2
	c1.8-0.5,3.1-2.6,2.7-4.5c-0.4-1.6-1.9-2.4-3.5-1.8c-1,0.4-1.7,1.2-2.2,2.1C-450.5,182.1-450.6,182.8-450.5,183.5z M-460.7,174.8
	c1.4-1.5,3.4-1.5,4.8,0c1.7,1.9,1.5,5.3-0.4,7c-1.4,1.2-3.2,1.2-4.5-0.2c-1.1-1.2-1.4-2.6-1.2-4
	C-461.7,176.4-461.3,175.6-460.7,174.8L-460.7,174.8z M-460.3,177.9c-0.1,0.8,0.1,1.6,0.7,2.2c0.7,0.7,1.7,0.8,2.5,0.1
	c1-0.9,1.1-2.8,0.2-3.9c-0.8-0.8-1.9-0.8-2.7,0C-460,176.7-460.2,177.2-460.3,177.9L-460.3,177.9z M-471.7,177.3
	c0.8-1.6,2.5-2.1,4-1.1c1.8,1.2,2.5,4,1.3,5.9c-0.8,1.3-2.4,1.7-3.7,0.9c-1.2-0.7-1.7-1.9-1.9-3C-472.1,178.9-472.1,178-471.7,177.3
	L-471.7,177.3z M-470.6,179.7c0.1,0.6,0.4,1.2,1,1.6c0.7,0.4,1.5,0.2,1.9-0.5c0.6-1,0.3-2.4-0.7-3.1c-0.8-0.5-1.7-0.2-2.1,0.6
	C-470.6,178.8-470.7,179.2-470.6,179.7L-470.6,179.7z M-479.1,183c0.6-1.5,2.2-2,3.6-1.2c1.7,1,2.4,3.5,1.5,5.3
	c-0.7,1.2-2.1,1.7-3.3,1c-1.1-0.6-1.7-1.6-1.9-2.7C-479.5,184.4-479.4,183.7-479.1,183z M-477.8,185.1c0.1,0.5,0.4,0.9,0.9,1.2
	c0.6,0.3,1.2,0.1,1.5-0.4c0.4-0.8,0.1-2-0.7-2.4c-0.6-0.4-1.3-0.1-1.6,0.5C-477.8,184.3-477.8,184.7-477.8,185.1L-477.8,185.1z"/>
</svg>
