<?xml version="1.0" encoding="utf-8"?>
<!-- Generator: Adobe Illustrator 19.0.0, SVG Export Plug-In . SVG Version: 6.00 Build 0)  -->
<svg version="1.1" id="图层_1" xmlns="http://www.w3.org/2000/svg" xmlns:xlink="http://www.w3.org/1999/xlink" x="0px" y="0px"
	 viewBox="-472 174 54 54" style="enable-background:new -472 174 54 54;" xml:space="preserve">
<title>question</title>
<desc>Created with Sketch.</desc>
<path d="M-445,174c-14.9,0-27,12.1-27,27s12.1,27,27,27s27-12.1,27-27S-430.1,174-445,174z M-443.4,214.5c-0.5,0.4-1,0.6-1.6,0.6
	c-0.6,0-1.2-0.2-1.6-0.6c-0.5-0.5-0.6-1-0.6-1.6c0-0.6,0.2-1.2,0.6-1.6c0.5-0.5,1-0.6,1.6-0.6c0.6,0,1.2,0.2,1.7,0.6
	c0.4,0.4,0.6,0.9,0.6,1.6C-442.7,213.5-443,214-443.4,214.5z M-438,199.4c-0.4,0.5-1.4,1.4-3,2.9c-0.8,0.7-1.4,1.4-1.8,2.1
	c-0.5,0.8-0.7,1.7-0.7,2.7v0.9h-3v-0.9c0-1.2,0.2-2.3,0.7-3.3c0.5-1.1,1.8-2.6,3.8-4.4c0.6-0.6,1.1-1.1,1.3-1.4
	c0.8-0.9,1.1-1.9,1.1-3c0-1.5-0.5-2.7-1.3-3.5c-0.9-0.9-2.1-1.3-3.7-1.3c-1.9,0-3.3,0.6-4.2,1.8c-0.8,1.1-1.2,2.5-1.2,4.3h-3
	c0-2.6,0.7-4.7,2.2-6.3c1.5-1.7,3.6-2.5,6.3-2.5c2.4,0,4.3,0.6,5.8,2c1.4,1.3,2.1,3,2.1,5.3C-436.6,196.7-437.1,198.2-438,199.4z"/>
</svg>
