<?xml version="1.0" encoding="utf-8"?>
<!-- Generator: Adobe Illustrator 19.0.0, SVG Export Plug-In . SVG Version: 6.00 Build 0)  -->
<svg version="1.1" id="图层_1" xmlns="http://www.w3.org/2000/svg" xmlns:xlink="http://www.w3.org/1999/xlink" x="0px" y="0px"
	 viewBox="-469 176 60 50" style="enable-background:new -469 176 60 50;" xml:space="preserve">
<title>shopping</title>
<desc>Created with Sketch.</desc>
<path id="Shape" d="M-414,182.7H-464l-4.5,13.1c0,4,3.3,7.3,7.4,7.3s7.4-3.3,7.4-7.3c0,4,3.3,7.3,7.4,7.3c4.1,0,7.4-3.3,7.4-7.3
	c0,4,3.3,7.3,7.4,7.3c4.1,0,7.4-3.3,7.4-7.3c0,4,3.3,7.3,7.4,7.3s7.4-3.3,7.4-7.3L-414,182.7L-414,182.7z M-459,180.4h39.9
	c1.5,0,2.7-1,2.7-2.2s-1.2-2.2-2.7-2.2H-459c-1.5,0-2.7,1-2.7,2.2C-461.7,179.4-460.5,180.4-459,180.4L-459,180.4z M-431.6,206.5
	c-2.8,0-5.4-1-7.4-2.9c-2,1.9-4.6,2.9-7.4,2.9c-2.8,0-5.4-1-7.4-2.9c-2,1.9-4.6,2.9-7.4,2.9c-0.2,0-0.4,0-0.6,0v15.1
	c0,2.7,2.4,4.4,4.5,4.4h36.3c2.7,0,4.5-2,4.5-4.4v-15.1c-0.2,0-0.4,0-0.6,0c-2.8,0-5.4-1-7.4-2.9
	C-426.3,205.4-428.9,206.5-431.6,206.5z"/>
</svg>
