<?xml version="1.0" encoding="utf-8"?>
<!-- Generator: Adobe Illustrator 19.0.0, SVG Export Plug-In . SVG Version: 6.00 Build 0)  -->
<svg version="1.1" id="图层_1" xmlns="http://www.w3.org/2000/svg" xmlns:xlink="http://www.w3.org/1999/xlink" x="0px" y="0px"
	 viewBox="-476 177 47 47" style="enable-background:new -476 177 47 47;" xml:space="preserve">
<style type="text/css">
	.st0{fill:#506473;}
</style>
<title>user research</title>
<desc>Created with Sketch.</desc>
<g id="Group-5" transform="translate(7.454545, 5.454545)">
	<path id="Shape" class="st0" d="M-438.4,186.3l-15.4,15.4l-11.2,4.2l4.2-11.2l15.4-15.4c1.5-1.5,4.1-1.5,5.6,0l1.4,1.4
		C-436.8,182.3-436.8,184.8-438.4,186.3L-438.4,186.3z M-461.6,202.5l6.7-2.5l0.4-0.4l-4.2-4.2l-0.4,0.4L-461.6,202.5L-461.6,202.5z
		 M-457.3,194l4.2,4.2l10.5-10.5l-4.2-4.2L-457.3,194L-457.3,194z M-439.8,182.1l-1.4-1.4c-0.8-0.8-2-0.8-2.8,0l-1.4,1.4l4.2,4.2
		l1.4-1.4C-439,184.1-439,182.8-439.8,182.1L-439.8,182.1z M-459,175.8v7.3c0,1.1,0.9,2,2,2h3.1l-2,2h-1.1c-2.2,0-4-1.8-4-4v-8.9
		h-17.8c-1.1,0-2,0.9-2,2v37.6c0,1.1,0.9,2,2,2h27.7c1.1,0,2-0.9,2-2v-14l2-2v15.9c0,2.2-1.8,4-4,4h-27.7c-2.2,0-4-1.8-4-4v-37.6
		c0-2.2,1.8-4,4-4h14.9h0.5h1h2.8l8.9,9.6l-1.4,1.4L-459,175.8L-459,175.8z"/>
	<path id="Rectangle-17" class="st0" d="M-475.4,204.1h7.1c0.6,0,1,0.4,1,1v0c0,0.6-0.4,1-1,1h-7.1c-0.6,0-1-0.4-1-1v0
		C-476.4,204.6-476,204.1-475.4,204.1z"/>
	<path id="Rectangle-17-Copy" class="st0" d="M-475.4,195.9h10.8c0.6,0,1,0.4,1,1v0c0,0.6-0.4,1-1,1h-10.8c-0.6,0-1-0.4-1-1v0
		C-476.4,196.4-476,195.9-475.4,195.9z"/>
	<path id="Rectangle-17-Copy-2" class="st0" d="M-475.4,188.6h14.4c0.6,0,1,0.4,1,1v0c0,0.6-0.4,1-1,1h-14.4c-0.6,0-1-0.4-1-1v0
		C-476.4,189.1-476,188.6-475.4,188.6z"/>
</g>
</svg>
