<?xml version="1.0" encoding="utf-8"?>
<!-- Generator: Adobe Illustrator 19.0.0, SVG Export Plug-In . SVG Version: 6.00 Build 0)  -->
<svg version="1.1" id="图层_1" xmlns="http://www.w3.org/2000/svg" xmlns:xlink="http://www.w3.org/1999/xlink" x="0px" y="0px"
	 viewBox="-477 179 44 44" style="enable-background:new -477 179 44 44;" xml:space="preserve">
<style type="text/css">
	.st0{fill:#EC4837;}
</style>
<title>Page 1</title>
<desc>Created with Sketch.</desc>
<g id="Page-1_1_">
	<g id="me" transform="translate(-38.000000, -62.000000)">
		<g id="Group-2" transform="translate(30.000000, 53.000000)">
			<g id="Page-1" transform="translate(8.000000, 9.000000)">
				<path id="Fill-1" class="st0" d="M-445,209.7h4v-17.4h-4V209.7z M-469,209.7h4v-17.4h-4V209.7z M-463.7,191h17.4v-4h-17.4V191z
					 M-463.7,215h17.4v-4h-17.4V215z M-471.9,215c-6.8-8.1-6.8-20,0-28.1l2.8,2.8c-5.2,6.6-5.2,15.9,0,22.5L-471.9,215z M-441,217.9
					c-8.1,6.8-20,6.8-28.1,0l2.8-2.8c6.6,5.3,15.9,5.3,22.5,0L-441,217.9z M-438.1,186.9c6.8,8.1,6.8,20,0,28.1l-2.8-2.8
					c5.2-6.6,5.2-15.9,0-22.5L-438.1,186.9z M-469.1,184.1c8.1-6.8,20-6.8,28.1,0l-2.8,2.8c-6.6-5.2-15.9-5.2-22.5,0L-469.1,184.1z
					 M-463.2,196.3v9.4c0,0.4,0.3,1,0.4,1.3c0.4,1,1.9,2.1,3.1,2.1h9.2c1.3,0,2.6-1,3.2-2c0.1-0.2,0.4-1,0.4-1.3v-9.5
					c0-0.6-0.6-1.7-1.1-2.2c-0.3-0.3-0.6-0.5-1-0.7c-0.3-0.2-0.9-0.4-1.3-0.4h-9.7c-0.6,0-1.7,0.6-2.2,1.2
					C-462.6,194.5-463.2,195.7-463.2,196.3L-463.2,196.3z M-450.8,197v8c0,0.1,0.1,0.2-0.1,0.2h-8.3v-8.4h8.3
					C-450.7,196.8-450.8,196.9-450.8,197L-450.8,197z"/>
			</g>
		</g>
	</g>
</g>
</svg>
