<?xml version="1.0" encoding="utf-8"?>
<!-- Generator: Adobe Illustrator 19.0.0, SVG Export Plug-In . SVG Version: 6.00 Build 0)  -->
<svg version="1.1" id="图层_1" xmlns="http://www.w3.org/2000/svg" xmlns:xlink="http://www.w3.org/1999/xlink" x="0px" y="0px"
	 viewBox="-476 178 46 46" style="enable-background:new -476 178 46 46;" xml:space="preserve">
<style type="text/css">
	.st0{fill:#506473;}
</style>
<title>find02</title>
<desc>Created with Sketch.</desc>
<path id="Fill-1" class="st0" d="M-450,203.1c-0.2,0.4-0.5,0.7-0.9,0.9l-8.7,3.5l3.5-8.7c0.2-0.4,0.5-0.7,0.9-0.9l8.7-3.5
	L-450,203.1z M-444.4,191.3c-0.1,0-0.3,0-0.4,0.1l-11.3,4.5c-0.9,0.4-1.6,1.1-1.9,1.9l-4.5,11.3c-0.3,0.6,0.2,1.2,0.8,1.2
	c0.1,0,0.3,0,0.4-0.1l11.3-4.5c0.9-0.4,1.6-1.1,1.9-1.9l4.5-11.3C-443.3,192-443.7,191.3-444.4,191.3L-444.4,191.3z M-453.1,202.7
	c1,0,1.8-0.8,1.8-1.8c0-1-0.8-1.8-1.8-1.8c-1,0-1.8,0.8-1.8,1.8C-454.8,201.9-454,202.7-453.1,202.7L-453.1,202.7z M-453.1,221.6
	c-11.4,0-20.7-9.3-20.7-20.7c0-11.4,9.3-20.7,20.7-20.7c11.4,0,20.7,9.3,20.7,20.7C-432.4,212.3-441.7,221.6-453.1,221.6
	L-453.1,221.6z M-453.1,178c-12.6,0-22.9,10.3-22.9,22.9c0,12.6,10.3,22.9,22.9,22.9c12.6,0,22.9-10.3,22.9-22.9
	C-430.1,188.3-440.5,178-453.1,178L-453.1,178z"/>
</svg>
