<?xml version="1.0" encoding="utf-8"?>
<!-- Generator: Adobe Illustrator 19.0.0, SVG Export Plug-In . SVG Version: 6.00 Build 0)  -->
<svg version="1.1" id="图层_1" xmlns="http://www.w3.org/2000/svg" xmlns:xlink="http://www.w3.org/1999/xlink" x="0px" y="0px"
	 viewBox="-476 178 46 46" style="enable-background:new -476 178 46 46;" xml:space="preserve">
<style type="text/css">
	.st0{fill:none;}
	.st1{fill:#EC4837;}
</style>
<title>find01</title>
<desc>Created with Sketch.</desc>
<rect id="Rectangle-2" x="-478" y="176" class="st0" width="50" height="50"/>
<path id="Fill-1" class="st1" d="M-453.1,178c-12.6,0-22.9,10.3-22.9,22.9c0,12.6,10.3,22.9,22.9,22.9c12.6,0,22.9-10.3,22.9-22.9
	C-430.1,188.3-440.5,178-453.1,178z M-443.6,192.6l-4.5,11.3c-0.4,0.9-1,1.6-1.9,1.9l-11.3,4.5c-0.1,0.1-0.3,0.1-0.3,0.1
	c-0.6,0-1.1-0.6-0.8-1.2l4.5-11.3c0.3-0.9,1-1.6,1.9-1.9l11.3-4.5c0.1-0.1,0.3-0.1,0.4-0.1C-443.7,191.3-443.3,192-443.6,192.6z
	 M-453,199.2c-1,0-1.8,0.8-1.8,1.8c0,1,0.8,1.8,1.8,1.8c1,0,1.8-0.8,1.8-1.8C-451.3,200-452.1,199.2-453,199.2z M-453,199.2
	c-1,0-1.8,0.8-1.8,1.8c0,1,0.8,1.8,1.8,1.8c1,0,1.8-0.8,1.8-1.8C-451.3,200-452.1,199.2-453,199.2z M-453,199.2
	c-1,0-1.8,0.8-1.8,1.8c0,1,0.8,1.8,1.8,1.8c1,0,1.8-0.8,1.8-1.8C-451.3,200-452.1,199.2-453,199.2z"/>
</svg>
