<?xml version="1.0" encoding="utf-8"?>
<!-- Generator: Adobe Illustrator 19.0.0, SVG Export Plug-In . SVG Version: 6.00 Build 0)  -->
<svg version="1.1" id="图层_1" xmlns="http://www.w3.org/2000/svg" xmlns:xlink="http://www.w3.org/1999/xlink" x="0px" y="0px"
	 viewBox="-476 177 46 48" style="enable-background:new -476 177 46 48;" xml:space="preserve">
<style type="text/css">
	.st0{fill:#EC4837;}
</style>
<title>home02</title>
<desc>Created with Sketch.</desc>
<path id="Fill-1" class="st0" d="M-435.5,191.4v-6.6c0-0.5-0.2-1-0.5-1.4c-0.3-0.4-0.8-0.6-1.3-0.6h-3.5c-0.5,0-1,0.2-1.3,0.6
	c-0.4,0.4-0.5,0.9-0.5,1.4v0.9l-8.7-7.2c-0.7-0.5-1.5-0.8-2.3-0.8c-0.8,0-1.6,0.3-2.3,0.8l-19.4,16.1c-0.3,0.2-0.5,0.6-0.5,1
	c-0.1,0.4,0,0.8,0.2,1.1c0.4,0.7,1.3,0.5,1.9,0.1l19.4-16c0.4-0.3,1-0.3,1.4,0l19.9,16.1c0.6,0.5,1.4,0.6,1.9-0.1
	c0.2-0.3,0.3-0.7,0.2-1.1c-0.1-0.4-0.2-0.7-0.5-1L-435.5,191.4z"/>
<path id="Fill-4" class="st0" d="M-459.3,224.4h-7.7c-3.4,0-6.2-3-6.2-6.6v-15c0-0.9,0.4-1.8,1.1-2.3l16-13.3c0,0,0,0,0.1-0.1
	c1.6-1.2,3.7-1.2,5.3,0c0,0,0,0,0,0l16,13.3c0.7,0.5,1.1,1.4,1.1,2.3v15.1c0,3.7-2.8,6.6-6.2,6.6h-8.3c-0.8,0-1.4-0.6-1.4-1.4v-10.7
	c0-1.4-1-2.6-2.3-2.6h-3.8c-1.3,0-2.3,1.2-2.3,2.6V223C-457.9,223.7-458.6,224.4-459.3,224.4"/>
</svg>
