<?xml version="1.0" encoding="utf-8"?>
<!-- Generator: Adobe Illustrator 19.0.0, SVG Export Plug-In . SVG Version: 6.00 Build 0)  -->
<svg version="1.1" id="图层_1" xmlns="http://www.w3.org/2000/svg" xmlns:xlink="http://www.w3.org/1999/xlink" x="0px" y="0px"
	 viewBox="-478 177 43 47" style="enable-background:new -478 177 43 47;" xml:space="preserve">
<style type="text/css">
	.st0{fill:#506473;}
</style>
<title>my01</title>
<desc>Created with Sketch.</desc>
<g>
	<path id="Fill-1" class="st0" d="M-459,179.8c-5.6,0-10.1,4.6-10.1,10.2c0,5.6,4.5,10.2,10.1,10.2s10.1-4.6,10.1-10.2
		C-449,184.4-453.5,179.8-459,179.8 M-459,202.3c-6.7,0-12.2-5.5-12.2-12.3c0-6.8,5.5-12.3,12.2-12.3c6.7,0,12.2,5.5,12.2,12.3
		C-446.8,196.8-452.3,202.3-459,202.3"/>
	<path id="Fill-3" class="st0" d="M-441,217.3c-0.8,0.4-1.6,0.6-2.5,0.7c0,0.3,0.1,0,0.1,0.3c-0.5,0.3-1.3,0.7-2.4,1.1
		c-2.4,0.9-6.2,2.1-11.5,2.1l-0.5,0c-11.6,0-16.1-2.5-17.3-3.2c0.2-8.6,7.6-15.9,16.1-15.9c3,0,5.8,0.9,8.2,2.4
		c0.6,0.4,1,0.6,1.6,1.1c0.5-0.7,0.8-1.1,1.6-1.5c-0.6-0.5-0.7-0.7-1.3-1.1c-2.9-1.9-6.4-3.1-10.1-3.1c-10.1,0-18.3,8.3-18.3,18.4
		c0,0.1,0,0.3,0,0.3c0,0.3,0.1,0.6,0.3,0.9c0.3,0.4,3.6,3.8,19.2,3.8h0.5c10.7,0,15.7-3.8,15.9-4c0.3-0.2,0.5-0.6,0.5-1
		c0-0.8,0-1.6-0.1-2.3"/>
	<g id="Fill-5">
		<path class="st0" d="M-443.1,210.3v0.3h0.9c0.5,0,1,0.5,1,0.9c0,0.2,0,0.3-0.1,0.4c-0.2,0.2-0.5,0.2-0.8,0.2h-0.9v1.2
			c0,0.5-0.3,1.1-0.8,1.1c-0.5,0-0.7-0.6-0.7-1.1v-1.2h-1.2c-0.2,0-0.4,0-0.5-0.1s-0.1-0.3-0.1-0.4c0-0.9,0.4-1,0.7-1h1.2v-0.3h-1.2
			c-0.2,0-0.3,0-0.5-0.1c-0.2-0.1-0.2-0.4-0.2-0.5c0-0.9,0.4-1,0.7-1h0.2l-1-1c-0.3-0.3-0.3-0.7,0-1c0.4-0.4,0.8-0.3,1.1,0l1.5,1.5
			l1.6-1.6c0.1-0.2,0.3-0.3,0.5-0.2c0.2,0,0.4,0.1,0.5,0.2l0,0c0.2,0.2,0.4,0.5-0.1,0.9l-1,1h0.1c0.5,0,1,0.5,1,0.9
			c0,0.2,0,0.5-0.4,0.6c-0.2,0-0.4,0.1-0.5,0H-443.1z"/>
	</g>
	<path id="Fill-14" class="st0" d="M-440.9,216.4c-0.8,0.4-1.6,0.6-2.5,0.7c-0.1,0-0.3,0-0.4,0c-3.7,0-6.6-3-6.6-6.7
		c0-1.5,0.5-2.9,1.3-4c0.5-0.7,1.2-1.3,2-1.8c1-0.6,2.1-0.9,3.4-0.9c3.7,0,6.7,3,6.7,6.7C-437.2,213-438.7,215.3-440.9,216.4
		 M-443.8,201.5c-1.9,0-3.7,0.6-5.1,1.7c-0.7,0.5-1.3,1.1-1.9,1.9c-1.1,1.5-1.7,3.3-1.7,5.2c0,4.2,2.9,7.7,6.7,8.6
		c0.6,0.1,1.3,0.2,2,0.2c1.1,0,2.1-0.2,3-0.5c3.3-1.2,5.7-4.5,5.7-8.2C-435.1,205.5-439,201.5-443.8,201.5"/>
</g>
</svg>
