<?xml version="1.0" encoding="utf-8"?>
<!-- Generator: Adobe Illustrator 19.0.0, SVG Export Plug-In . SVG Version: 6.00 Build 0)  -->
<svg version="1.1" id="图层_1" xmlns="http://www.w3.org/2000/svg" xmlns:xlink="http://www.w3.org/1999/xlink" x="0px" y="0px"
	 viewBox="-478 177 43 47" style="enable-background:new -478 177 43 47;" xml:space="preserve">
<style type="text/css">
	.st0{fill:#EC4837;}
</style>
<title>my02</title>
<desc>Created with Sketch.</desc>
<path class="st0" d="M-441,218.1c-0.9,0.3-1.8,0.5-2.8,0.5c-0.6,0-1.3-0.1-1.9-0.2c-3.6-0.8-6.3-4.1-6.3-8c0-1.8,0.6-3.6,1.6-4.9
	c0.5-0.7,1.1-1.3,1.7-1.7c0,0,0.1-0.1,0.2-0.1c-0.1-0.1-0.3-0.2-0.5-0.3c-1.4-1-3-1.7-4.6-2.2c4-2,6.8-6.2,6.8-11
	c0-6.8-5.5-12.3-12.2-12.3c-6.7,0-12.2,5.5-12.2,12.3c0,4.8,2.7,9,6.7,11c-7.4,2.3-12.8,9.3-12.8,17.6c0,0.1,0,0.3,0,0.3
	c0,0.3,0.1,0.6,0.3,0.9c0.3,0.4,3.6,3.8,19.2,3.8h0.5c10.7,0,15.7-3.8,15.9-4c0.3-0.2,0.5-0.6,0.5-1c0-0.2,0-0.4,0-0.6
	C-440.9,218-440.9,218.1-441,218.1z"/>
<path id="Fill-14" class="st0" d="M-441,216.4c-0.8,0.4-1.6,0.6-2.5,0.7c-0.1,0-0.3,0-0.4,0c-3.7,0-6.6-3-6.6-6.7
	c0-1.5,0.5-2.9,1.3-4c0.5-0.7,1.2-1.3,2-1.8c1-0.6,2.1-0.9,3.4-0.9c3.7,0,6.7,3,6.7,6.7C-437.3,213-438.8,215.3-441,216.4
	 M-444,201.5c-1.9,0-3.7,0.6-5.1,1.7c-0.7,0.5-1.3,1.1-1.9,1.9c-1.1,1.5-1.7,3.3-1.7,5.2c0,4.2,2.9,7.7,6.7,8.6
	c0.6,0.1,1.3,0.2,2,0.2c1.1,0,2.1-0.2,3-0.5c3.3-1.2,5.7-4.5,5.7-8.2C-435.2,205.5-439.1,201.5-444,201.5"/>
<g id="Fill-5">
	<path class="st0" d="M-443.1,210.3v0.3h0.9c0.5,0,1,0.5,1,0.9c0,0.2,0,0.3-0.1,0.4c-0.2,0.2-0.5,0.2-0.8,0.2h-0.9v1.2
		c0,0.5-0.3,1.1-0.8,1.1c-0.5,0-0.7-0.6-0.7-1.1v-1.2h-1.2c-0.2,0-0.4,0-0.5-0.1s-0.1-0.3-0.1-0.4c0-0.9,0.4-1,0.7-1h1.2v-0.3h-1.2
		c-0.2,0-0.3,0-0.5-0.1c-0.2-0.1-0.2-0.4-0.2-0.5c0-0.9,0.4-1,0.7-1h0.2l-1-1c-0.3-0.3-0.3-0.7,0-1c0.4-0.4,0.8-0.3,1.1,0l1.5,1.5
		l1.6-1.6c0.1-0.2,0.3-0.3,0.5-0.2c0.2,0,0.4,0.1,0.5,0.2l0,0c0.2,0.2,0.4,0.5-0.1,0.9l-1,1h0.1c0.5,0,1,0.5,1,0.9
		c0,0.2,0,0.5-0.4,0.6c-0.2,0-0.4,0.1-0.5,0H-443.1z"/>
</g>
</svg>
