<?xml version="1.0" encoding="utf-8"?>
<!-- Generator: Adobe Illustrator 19.0.0, SVG Export Plug-In . SVG Version: 6.00 Build 0)  -->
<svg version="1.1" id="图层_1" xmlns="http://www.w3.org/2000/svg" xmlns:xlink="http://www.w3.org/1999/xlink" x="0px" y="0px"
	 viewBox="-478 180 43 41" style="enable-background:new -478 180 43 41;" xml:space="preserve">
<style type="text/css">
	.st0{fill:#506473;}
</style>
<title>pruduct01</title>
<desc>Created with Sketch.</desc>
<path id="Shape" class="st0" d="M-436.8,192.9c-0.6,0-1.2,0.5-1.2,1.1v22c0,1.2-1,2.2-2.3,2.2h-32.6c-1.3,0-2.3-1-2.3-2.2v-6.5
	l3.5,3.2c0.2,0.2,0.5,0.3,0.8,0.3h0.1c0.3,0,0.6-0.2,0.8-0.4l8.2-10.4l5,5.5c0.2,0.3,0.6,0.4,1,0.4c0.4,0,0.7-0.2,0.9-0.5l9.3-13.3
	l2.9,1.9c0.2,0.1,0.4,0.2,0.6,0.2c0.1,0,0.3,0,0.4-0.1c0.3-0.1,0.6-0.4,0.7-0.8l3.6-13.7c0.1-0.5-0.1-1-0.5-1.2
	c-0.4-0.3-1-0.2-1.4,0.1l-11.3,8.8c-0.3,0.2-0.4,0.6-0.4,0.9c0,0.4,0.2,0.7,0.5,0.9l2.8,1.8l-8.4,12.1l-5-5.4
	c-0.2-0.3-0.6-0.4-0.9-0.4c-0.3,0-0.7,0.2-0.9,0.4l-8.3,10.5l-4.2-3.8v-21.6c0-1.2,1-2.2,2.3-2.2h23c0.6,0,1.2-0.5,1.2-1.1
	c0-0.6-0.5-1.1-1.2-1.1h-23c-2.6,0-4.7,2-4.7,4.5V216c0,2.5,2.1,4.5,4.7,4.5h32.6c2.6,0,4.7-2,4.7-4.5v-22
	C-435.6,193.4-436.1,192.9-436.8,192.9L-436.8,192.9z M-440.4,184.5l-2.4,8.9l-5-3.2L-440.4,184.5L-440.4,184.5z"/>
</svg>
