<?xml version="1.0" encoding="utf-8"?>
<!-- Generator: Adobe Illustrator 19.0.0, SVG Export Plug-In . SVG Version: 6.00 Build 0)  -->
<svg version="1.1" id="图层_1" xmlns="http://www.w3.org/2000/svg" xmlns:xlink="http://www.w3.org/1999/xlink" x="0px" y="0px"
	 viewBox="-478 180 43 41" style="enable-background:new -478 180 43 41;" xml:space="preserve">
<style type="text/css">
	.st0{fill:#EC4837;}
</style>
<title>pruduct02</title>
<desc>Created with Sketch.</desc>
<path class="st0" d="M-435.6,184.8c-0.1-1.7-0.8-2.7-1.7-3.4c0,0.1,0,0.2,0,0.4l-3.6,13.7c-0.1,0.3-0.4,0.6-0.7,0.8
	c-0.1,0-0.3,0.1-0.4,0.1c-0.2,0-0.5,0-0.6-0.2l-2.9-1.9l-9.3,13.3c-0.2,0.3-0.5,0.5-0.9,0.5c-0.4,0-0.7-0.1-1-0.4l-5-5.5l-8.2,10.4
	c-0.2,0.3-0.5,0.4-0.9,0.4c-0.3,0-0.6-0.1-0.8-0.3l-3.5-3.2l0-3.1l4.2,3.8l8.3-10.5c0.2-0.3,0.5-0.4,0.9-0.4c0.4,0,0.7,0.1,0.9,0.4
	l5,5.4l8.4-12.1l-2.8-1.8c-0.3-0.2-0.5-0.5-0.5-0.9c0-0.4,0.1-0.7,0.4-0.9l11.3-8.8c0,0,0,0,0.1,0c-0.4-0.1-0.8-0.2-1.1-0.2
	l-32.6-0.1c-2.6,0-4.7,2-4.7,4.5V216c0,2.5,2.1,4.5,4.7,4.5h32.6c2.6,0,4.7-2,4.7-4.5C-435.6,216-435.6,188.1-435.6,184.8z"/>
</svg>
