<?xml version="1.0" encoding="utf-8"?>
<!-- Generator: Adobe Illustrator 19.0.0, SVG Export Plug-In . SVG Version: 6.00 Build 0)  -->
<svg version="1.1" id="图层_1" xmlns="http://www.w3.org/2000/svg" xmlns:xlink="http://www.w3.org/1999/xlink" x="0px" y="0px"
	 viewBox="-477 181 44 40" style="enable-background:new -477 181 44 40;" xml:space="preserve">
<style type="text/css">
	.st0{fill:#506473;}
</style>
<title>auto bid</title>
<desc>Created with Sketch.</desc>
<g>
	<path id="padlock" class="st0" d="M-439.3,186.8c-3.8-3.8-8.8-5.8-14.1-5.8c-5.4,0-10.5,2.1-14.3,6c-0.4,0.4-0.4,1.1,0,1.5
		c0.4,0.4,1.1,0.4,1.5,0c3.4-3.5,7.9-5.4,12.7-5.4c9.8,0,17.8,8,17.8,17.7c0,9.8-8,17.8-17.8,17.8c-9.8,0-17.8-8-17.8-17.8v-0.2
		l1.8,1.8c0.2,0.2,0.5,0.3,0.8,0.3c0.3,0,0.5-0.1,0.8-0.3c0.4-0.4,0.4-1.1,0-1.5l-3.6-3.6c-0.4-0.4-1.1-0.4-1.5,0l-3.6,3.6
		c-0.4,0.4-0.4,1.1,0,1.5c0.2,0.2,0.5,0.3,0.8,0.3c0.3,0,0.5-0.1,0.8-0.3l1.8-1.8v0.2c0,5.3,2.1,10.3,5.8,14.1
		c3.8,3.8,8.8,5.8,14.1,5.8c5.3,0,10.3-2.1,14.1-5.8c3.8-3.8,5.8-8.8,5.8-14.1C-433.5,195.6-435.5,190.6-439.3,186.8L-439.3,186.8z"
		/>
	<path id="cursor" class="st0" d="M-456.2,204.2l1.6,8.4c0.1,0.3,0.7,0.5,1,0.5h0.2c0.3,0,0.7-0.3,0.8-0.5l10.4-21.5
		c0.2-0.3,0.1-0.7-0.2-0.9s-0.6-0.3-0.9-0.1l-21.5,10.8c-0.3,0.1-0.4,0.6-0.4,0.9c0,0.3,0.3,0.7,0.6,0.8l8.1,1.6L-456.2,204.2z
		 M-453.3,209.2l-0.9-6.5c-0.1-0.2-0.3-0.4-0.5-0.5l-6.8-1l15.9-8L-453.3,209.2z"/>
</g>
</svg>
