<?xml version="1.0" encoding="utf-8"?>
<!-- Generator: Adobe Illustrator 19.0.0, SVG Export Plug-In . SVG Version: 6.00 Build 0)  -->
<svg version="1.1" id="图层_1" xmlns="http://www.w3.org/2000/svg" xmlns:xlink="http://www.w3.org/1999/xlink" x="0px" y="0px"
	 viewBox="-480 182 38 38" style="enable-background:new -480 182 38 38;" xml:space="preserve">
<style type="text/css">
	.st0{fill:#506473;}
</style>
<title>beans</title>
<desc>Created with Sketch.</desc>
<path id="Shape" class="st0" d="M-457.8,220c-4.3,0-7.4-1-10.6-2.9c-10.2-5.4-14.4-18.4-9.5-29.2l0.2-0.3c1-2.1,2.6-3.7,4.7-4.8
	c5-2,10.6,0,13.3,4.9c0.3,0.6,0.6,1.1,0.9,1.7c0.6,1.3,1.6,2.3,2.7,3.2c0.7,0.5,1.5,0.8,2.3,0.8c2.1-0.1,4.2,0.4,6.1,1.4
	c5.5,3.3,7.5,10.6,4.4,16.4l-0.1,0.1c-1.2,2.6-3.1,4.8-5.6,6.3C-451.9,219.2-453.6,220-457.8,220z M-450.2,215.8
	c2-1.2,3.7-3.1,4.8-5.5l0.1-0.1c2.5-4.8,0.9-10.9-3.5-13.5c-1.5-0.8-3.3-1.2-5-1.1c-1.4,0-2.7-0.4-3.8-1.3c-1.4-1-2.6-2.4-3.4-4
	c-0.1-0.2-0.2-0.4-0.3-0.5c-0.2-0.4-0.4-0.8-0.6-1.2c-2.1-3.9-6.5-5.5-10.3-4c-1.6,0.8-2.9,2.1-3.7,3.8l-0.1,0.2
	c-4.4,9.9-0.6,21.7,8.6,26.6c3.2,1.8,6,2.6,9.6,2.6C-454.3,217.8-453,217.4-450.2,215.8z M-467.6,190.9c-0.2-0.5,0.2-1.1,0.7-1.3
	c0.5-0.2,1.1,0.2,1.3,0.7c1.2,4.4,4.3,6.5,9.3,6.5c0.6,0,1,0.5,1,1s-0.5,1-1,1C-462.3,198.9-466.1,196.2-467.6,190.9L-467.6,190.9z"
	/>
</svg>
