<?xml version="1.0" encoding="utf-8"?>
<!-- Generator: Adobe Illustrator 19.0.0, SVG Export Plug-In . SVG Version: 6.00 Build 0)  -->
<svg version="1.1" id="图层_1" xmlns="http://www.w3.org/2000/svg" xmlns:xlink="http://www.w3.org/1999/xlink" x="0px" y="0px"
	 viewBox="-478 182 42 38" style="enable-background:new -478 182 42 38;" xml:space="preserve">
<style type="text/css">
	.st0{fill:#506473;}
</style>
<title>chat</title>
<desc>Created with Sketch.</desc>
<g id="Rectangle-34-Copy-5">
	<path class="st0" d="M-466.5,219.2c0,0-0.1,0-0.1,0c-0.4,0-0.7-0.3-0.9-0.6l-2.7-5.5h-1.7c-2.8,0-5.1-2.3-5.1-5.1v-20
		c0-2.8,2.3-5.1,5.1-5.1h30c2.8,0,5.1,2.3,5.1,5.1v20c0,2.8-2.3,5.1-5.1,5.1h-18.8l-4.9,5.7C-465.9,219.1-466.2,219.2-466.5,219.2z
		 M-472,185.1c-1.6,0-2.9,1.3-2.9,2.9v20c0,1.6,1.3,2.9,2.9,2.9h2.4c0.4,0,0.8,0.2,1,0.6l2.3,4.6l4.1-4.9c0.2-0.2,0.5-0.4,0.8-0.4
		h19.3c1.6,0,2.9-1.3,2.9-2.9v-20c0-1.6-1.3-2.9-2.9-2.9H-472z"/>
</g>
<g id="Path-147">
	<path class="st0" d="M-444,193.2h-26c-0.6,0-1.1-0.5-1.1-1.1s0.5-1.1,1.1-1.1h26c0.6,0,1.1,0.5,1.1,1.1S-443.4,193.2-444,193.2z"/>
</g>
<g id="Path-147-Copy">
	<path class="st0" d="M-444,199.2h-26c-0.6,0-1.1-0.5-1.1-1.1s0.5-1.1,1.1-1.1h26c0.6,0,1.1,0.5,1.1,1.1S-443.4,199.2-444,199.2z"/>
</g>
<g id="Path-147-Copy-2">
	<path class="st0" d="M-455,205.2h-15c-0.6,0-1.1-0.5-1.1-1.1s0.5-1.1,1.1-1.1h15c0.6,0,1.1,0.5,1.1,1.1S-454.4,205.2-455,205.2z"/>
</g>
</svg>
