<?xml version="1.0" encoding="utf-8"?>
<!-- Generator: Adobe Illustrator 19.0.0, SVG Export Plug-In . SVG Version: 6.00 Build 0)  -->
<svg version="1.1" id="图层_1" xmlns="http://www.w3.org/2000/svg" xmlns:xlink="http://www.w3.org/1999/xlink" x="0px" y="0px"
	 viewBox="-479 186 40 29" style="enable-background:new -479 186 40 29;" xml:space="preserve">
<style type="text/css">
	.st0{fill:#506473;}
</style>
<title>coupon</title>
<desc>Created with Sketch.</desc>
<g>
	<path id="Shape" class="st0" d="M-441.2,214.9h-35.5c-1.2,0-2.2-1-2.2-2.2V206c0-0.6,0.5-1.1,1.1-1.1c0-0.1,0-0.1,0-0.1
		c1.9-0.5,3.4-2.2,3.4-4.3c0-2.1-1.4-3.8-3.4-4.3c0-0.1,0-0.1,0-0.1c-0.6,0-1.1-0.5-1.1-1.1v-6.7c0-1.2,1-2.2,2.2-2.2h35.5
		c1.2,0,2.2,1,2.2,2.2v6.7c0,0.6-0.5,1.1-1.1,1.1c0,0.1,0,0.1,0,0.1c-1.9,0.5-3.4,2.2-3.4,4.3s1.4,3.8,3.4,4.3c0,0.1,0,0.1,0,0.1
		c0.6,0,1.1,0.5,1.1,1.1v6.7C-439,213.9-440,214.9-441.2,214.9z M-440.9,206.9c-2.6-0.9-4.5-3.4-4.5-6.4c0-3,1.9-5.5,4.5-6.4v-4.9
		c0-0.6-0.5-1.1-1.1-1.1h-34c-0.6,0-1.1,0.5-1.1,1.1v4.9c2.6,0.9,4.5,3.4,4.5,6.4c0,3-1.9,5.5-4.5,6.4v4.9c0,0.6,0.5,1.1,1.1,1.1h34
		c0.6,0,1.1-0.5,1.1-1.1V206.9L-440.9,206.9z"/>
	<path id="Combined-Shape" class="st0" d="M-455.3,199.8h3.7l0,0c0.4,0,0.8-0.4,0.8-0.9c0-0.5-0.4-0.9-0.8-0.9h-2.6l3-3.2
		c0.3-0.3,0.3-0.9,0-1.2c-0.3-0.3-0.8-0.3-1.1,0l-3.8,4l-3.7-3.9c-0.2-0.2-0.5-0.3-0.8-0.2c-0.3,0.1-0.5,0.3-0.6,0.6
		c-0.1,0.3,0,0.6,0.2,0.8l2.9,3h-2.6c-0.4,0-0.8,0.4-0.8,0.9c0,0.5,0.4,0.9,0.8,0.9h3.7v1.8h-3.7c-0.4,0-0.8,0.4-0.8,0.9
		s0.4,0.9,0.8,0.9h3.7v3.4c0,0.2,0.1,0.5,0.2,0.6c0.2,0.2,0.4,0.3,0.6,0.3l0,0c0.2,0,0.4-0.1,0.6-0.3c0.2-0.2,0.2-0.4,0.2-0.6v-3.4
		h3.7c0.4,0,0.8-0.4,0.8-0.9s-0.4-0.9-0.8-0.9h-3.7V199.8z"/>
	<path id="Rectangle-13" class="st0" d="M-469,186.9L-469,186.9c0.5,0,0.9,0.4,0.9,0.9v3.6c0,0.5-0.4,0.9-0.9,0.9l0,0
		c-0.5,0-0.9-0.4-0.9-0.9v-3.6C-469.9,187.3-469.5,186.9-469,186.9z"/>
	<path id="Rectangle-13-Copy" class="st0" d="M-469,194.2L-469,194.2c0.5,0,0.9,0.4,0.9,0.9v3.6c0,0.5-0.4,0.9-0.9,0.9l0,0
		c-0.5,0-0.9-0.4-0.9-0.9v-3.6C-469.9,194.6-469.5,194.2-469,194.2z"/>
	<path id="Rectangle-13-Copy-2" class="st0" d="M-469,201.5L-469,201.5c0.5,0,0.9,0.4,0.9,0.9v3.6c0,0.5-0.4,0.9-0.9,0.9l0,0
		c-0.5,0-0.9-0.4-0.9-0.9v-3.6C-469.9,201.9-469.5,201.5-469,201.5z"/>
	<path id="Rectangle-13-Copy-3" class="st0" d="M-469,208.7L-469,208.7c0.5,0,0.9,0.4,0.9,0.9v3.6c0,0.5-0.4,0.9-0.9,0.9l0,0
		c-0.5,0-0.9-0.4-0.9-0.9v-3.6C-469.9,209.1-469.5,208.7-469,208.7z"/>
</g>
</svg>
