<?xml version="1.0" encoding="utf-8"?>
<!-- Generator: Adobe Illustrator 19.0.0, SVG Export Plug-In . SVG Version: 6.00 Build 0)  -->
<svg version="1.1" id="图层_1" xmlns="http://www.w3.org/2000/svg" xmlns:xlink="http://www.w3.org/1999/xlink" x="0px" y="0px"
	 viewBox="-470 189 58 24" style="enable-background:new -470 189 58 24;" xml:space="preserve">
<style type="text/css">
	.st0{fill:#506473;}
</style>
<title>eye close</title>
<desc>Created with Sketch.</desc>
<path id="Shape" class="st0" d="M-412.3,200.1l-3.4-5.7c1-0.9,2-1.8,2.9-2.8c0.5-0.5,0.6-1.5,0.1-2.1c-0.5-0.6-1.3-0.3-1.8,0.2
	c-6.6,6.8-13.5,11-20.5,12.6c-5.6,1.3-11.3,0.8-16.9-1.4c-5-1.9-9.1-4.8-11.6-6.9c-2.7-2.3-4.3-4.2-4.3-4.2
	c-0.5-0.6-1.3-0.9-1.9-0.4c-0.5,0.6-0.5,1.5,0,2.1c0.1,0.1,1.3,1.5,3.4,3.5l-3,4.6c-0.4,0.6-0.3,1.6,0.2,2.1
	c0.2,0.2,0.5,0.3,0.8,0.3c0.4,0,0.8-0.2,1-0.6l3.1-4.7c2.3,1.8,5.4,4,9.2,5.7l-2,5.2c-0.3,0.7,0,1.7,0.6,2c0.2,0.1,0.3,0.1,0.5,0.1
	c0.5,0,0.9-0.3,1.2-0.9l2.1-5.4c3.3,1.3,6.7,1.9,10,2.1v5.8c0,0.8,0.6,1.5,1.3,1.5c0.7,0,1.3-0.7,1.3-1.5v-5.8
	c1.8-0.1,3.5-0.3,5.3-0.7c1.9-0.4,3.8-1,5.6-1.8l2.3,5.5c0.2,0.5,0.7,0.8,1.1,0.8c0.2,0,0.4,0,0.5-0.1c0.6-0.4,0.9-1.3,0.6-2
	l-2.2-5.3c3-1.5,5.9-3.4,8.7-5.8l3.3,5.3c0.2,0.4,0.6,0.6,1,0.6c0.3,0,0.5-0.1,0.8-0.3c0.5-0.6,0.6-1.5,0.2-2.2L-412.3,200.1z"/>
</svg>
