<?xml version="1.0" encoding="utf-8"?>
<!-- Generator: Adobe Illustrator 19.0.0, SVG Export Plug-In . SVG Version: 6.00 Build 0)  -->
<svg version="1.1" id="图层_1" xmlns="http://www.w3.org/2000/svg" xmlns:xlink="http://www.w3.org/1999/xlink" x="0px" y="0px"
	 viewBox="-469 183 60 35" style="enable-background:new -469 183 60 35;" xml:space="preserve">
<style type="text/css">
	.st0{fill:#506473;}
</style>
<title>eye</title>
<desc>Created with Sketch.</desc>
<g>
	<path id="Fill-1" class="st0" d="M-411.9,200.9c-6.6,7.3-13.6,11.8-21.3,13.7c-1.3,0.3-2.6,0.5-3.7,0.6c-3.3,0.2-6.8-0.2-10-1.2
		c-1.8-0.6-3.6-1.3-5.4-2.3c-5.1-2.7-9.5-6.2-13.3-10.3c-0.8-0.8-0.8-1.1,0-1.9c4.9-5.3,10.1-9.1,16-11.6c3.6-1.5,7.2-2.3,10.7-2.3
		c3.8,0,7.7,0.9,11.5,2.7c5.5,2.5,10.6,6.3,15.1,11.1c0.2,0.2,0.3,0.4,0.5,0.5C-411.7,200.4-411.7,200.7-411.9,200.9z M-409.9,198.3
		c-0.2-0.2-0.4-0.5-0.6-0.7c-4.7-5.1-10.1-9.1-15.9-11.7c-8.1-3.7-16.4-3.9-24.5-0.4c-6.2,2.6-11.7,6.6-16.9,12.2
		c-1.7,1.8-1.7,3.7,0,5.5c4,4.4,8.7,8.1,14,10.9c1.9,1,3.9,1.9,5.8,2.5c2.9,0.9,5.9,1.4,8.9,1.4h0c0.7,0,1.4,0,2.2-0.1
		c1.3-0.1,2.7-0.3,4.2-0.7c8.3-2.1,15.7-6.8,22.7-14.5C-408.8,201.5-408.8,199.7-409.9,198.3z"/>
	<path id="Fill-3" class="st0" d="M-439.2,208.7c-4.1,0-7.5-3.4-7.5-7.5c0-4.1,3.4-7.5,7.5-7.5c4.1,0,7.5,3.4,7.5,7.5
		C-431.7,205.3-435.1,208.7-439.2,208.7 M-439.2,191c-5.6,0-10.2,4.6-10.2,10.2s4.6,10.2,10.2,10.2c5.6,0,10.2-4.6,10.2-10.2
		S-433.6,191-439.2,191"/>
</g>
</svg>
