<?xml version="1.0" encoding="utf-8"?>
<!-- Generator: Adobe Illustrator 19.0.0, SVG Export Plug-In . SVG Version: 6.00 Build 0)  -->
<svg version="1.1" id="图层_1" xmlns="http://www.w3.org/2000/svg" xmlns:xlink="http://www.w3.org/1999/xlink" x="0px" y="0px"
	 viewBox="-479 180 40 42" style="enable-background:new -479 180 40 42;" xml:space="preserve">
<style type="text/css">
	.st0{fill:#506473;}
</style>
<title>helpphones</title>
<desc>Created with Sketch.</desc>
<path id="headphones" class="st0" d="M-444.6,196v-1.6c0-3.9-1.4-7.5-3.8-10.1c-2.5-2.7-6-4.2-9.8-4.2h-1.3c-3.8,0-7.3,1.5-9.8,4.2
	c-2.5,2.7-3.8,6.3-3.8,10.1v1.6c-3,0.2-5.4,2.7-5.4,5.8v2.5c0,3.2,2.6,5.8,5.8,5.8h3.3c0.6,0,1.1-0.5,1.1-1.1v-12
	c0-0.6-0.5-1.1-1.1-1.1h-1.5v-1.6c0-7,5-12.2,11.6-12.2h1.3c6.6,0,11.6,5.3,11.6,12.2v1.6h-1.5c-0.6,0-1.1,0.5-1.1,1.1v12
	c0,0.6,0.5,1.1,1.1,1.1h1.5c-0.4,5.5-4.2,6.8-6,7.1c-0.5-1.5-1.9-2.6-3.5-2.6h-2.6c-2,0-3.7,1.7-3.7,3.7c0,2,1.7,3.7,3.7,3.7h2.7
	c1.7,0,3.2-1.2,3.6-2.7c0.9-0.1,2.2-0.4,3.6-1.2c1.9-1.1,4.2-3.4,4.5-8c3-0.2,5.4-2.7,5.4-5.8v-2.5
	C-439.2,198.7-441.6,196.2-444.6,196L-444.6,196z M-470.8,207.9h-2.2c-2,0-3.7-1.6-3.7-3.7v-2.5c0-2,1.6-3.7,3.7-3.7h2.2V207.9
	L-470.8,207.9z M-456.3,219.9h-2.7c-0.9,0-1.6-0.7-1.6-1.6c0-0.9,0.7-1.6,1.6-1.6h2.7c0.9,0,1.6,0.7,1.6,1.6
	C-454.7,219.2-455.4,219.9-456.3,219.9L-456.3,219.9z M-441.4,204.3c0,2-1.6,3.7-3.7,3.7h-2.2v-9.8h2.2c2,0,3.7,1.6,3.7,3.7V204.3
	L-441.4,204.3z"/>
</svg>
