<?xml version="1.0" encoding="utf-8"?>
<!-- Generator: Adobe Illustrator 19.0.0, SVG Export Plug-In . SVG Version: 6.00 Build 0)  -->
<svg version="1.1" id="图层_1" xmlns="http://www.w3.org/2000/svg" xmlns:xlink="http://www.w3.org/1999/xlink" x="0px" y="0px"
	 viewBox="-477 179 44 43" style="enable-background:new -477 179 44 43;" xml:space="preserve">
<style type="text/css">
	.st0{fill:#506473;}
</style>
<title>invest</title>
<desc>Created with Sketch.</desc>
<path id="mybid" class="st0" d="M-436.1,196.9h-0.7c-1-2.5-2.8-4.9-5.1-6.7c0,0,0,0,0,0c-0.3-1.2-0.1-2.4,0.8-3.7
	c0.5-0.7,0.5-1.6,0-2.3c-0.5-0.7-1.3-1.1-2.2-1c-3.3,0.4-5.2,1.8-6.3,3.1c-1.1-0.3-2.2-0.5-3.3-0.6c-0.6-0.1-1.1,0.3-1.2,0.9
	c-0.1,0.6,0.4,1.1,0.9,1.1c1.2,0.1,2.5,0.4,3.7,0.7c0.5,0.1,1,0,1.2-0.4c0.8-1.1,2.3-2.5,5.3-2.8c0,0,0.1,0,0.1,0c0,0.1,0,0.1,0,0.1
	c-1.2,1.8-1.5,3.6-1,5.3v0c0,0.3,0.2,0.6,0.4,0.8c2.4,1.8,4.1,4.2,5,6.7c0.1,0.4,0.6,0.7,1,0.7h0h1.4c0.5,0,0.9,0.4,0.9,0.9v4.6
	c0,0.5-0.4,0.9-0.9,0.9h-1.4c-0.5,0-0.9,0.3-1,0.7c-0.8,2.4-2.3,4.7-4.5,6.5c0,0,0,0,0,0l0,0c-0.1,0.1-0.2,0.1-0.2,0.2c0,0,0,0,0,0
	c-2.3,2-2.5,4.3-2.6,5v0v1.5h-6.5v-1.5c0-0.3-0.1-0.6-0.4-0.8c-0.2-0.2-0.5-0.3-0.8-0.3c-0.7,0.1-1.4,0.1-2.2,0.1
	c-0.9,0-1.9-0.1-2.8-0.2c-0.3,0-0.6,0.1-0.9,0.2c-0.2,0.2-0.4,0.5-0.4,0.8v1.5h-6.5v-0.5v0c-0.1-1.1-0.4-4-2.8-6.3
	c-1.1-1.1-2.1-2.5-3-4.3c0,0,0,0,0,0c-0.5-0.9-0.9-1.9-1.1-2.9c0,0,0,0,0,0v0c-0.3-1-0.4-2-0.4-3c0-0.7,0.1-1.4,0.2-2.1
	c0.1-0.6-0.3-1.1-0.9-1.2c-0.6-0.1-1.1,0.3-1.2,0.9c-0.1,0.8-0.2,1.6-0.2,2.5c0,1.2,0.1,2.3,0.4,3.5c0,0,0,0,0,0.1c0,0,0,0,0,0.1
	c0.3,1.1,0.7,2.3,1.3,3.3c0.9,2,2.1,3.6,3.4,4.8c1.8,1.8,2.1,4,2.2,4.9v0.4v0.1c0,0,0,0.1,0,0.1c0.1,1,1,1.8,2.1,1.8h6.5
	c1.2,0,2.2-0.9,2.2-2.1v-0.4c1,0.1,2,0.1,3,0v0.4c0,1.1,1,2.1,2.2,2.1h6.5c1.2,0,2.2-0.9,2.2-2.1v-1.5c0-0.4,0.2-2.1,1.8-3.5
	c0.1-0.1,0.2-0.1,0.2-0.2c0,0,0,0,0,0c0,0,0,0,0.1-0.1c2.2-1.9,3.8-4.2,4.8-6.6h0.6c1.7,0,3.1-1.3,3.1-2.9v-4.6
	C-433,198.2-434.4,196.9-436.1,196.9z M-466.4,200.2c5.9,0,10.6-4.8,10.6-10.6c0-5.9-4.8-10.6-10.6-10.6s-10.6,4.8-10.6,10.6
	C-477,195.5-472.2,200.2-466.4,200.2z M-457.9,189.6c0,4.7-3.8,8.4-8.5,8.4s-8.5-3.8-8.5-8.4c0-4.7,3.8-8.4,8.5-8.4
	S-457.9,185-457.9,189.6z M-462.2,184.3L-462.2,184.3c-0.4-0.4-0.8-0.4-1.1-0.1c0,0,0,0,0,0l-2.8,2.8l-2.7-2.7
	c-0.3-0.3-0.7-0.4-0.9-0.1l-0.1,0.1c-0.3,0.3-0.3,0.6,0,0.9l2.4,2.2h-1.5c-0.5,0-0.6,0.5-0.6,0.9v0.1c0,0.4,0.1,0.4,0.6,0.4h2.3v1.4
	h-2.3c-0.5,0-0.6,0.5-0.6,0.9v0.1c0,0.4,0.1,0.4,0.6,0.4h2.3v2.3c0,0.5,0.2,1.3,0.6,1.3h0.1c0.4,0,0.8-0.8,0.8-1.3v-2.3h1.8
	c0.5,0,1.1,0,1.1-0.4v-0.1c0-0.4-0.6-0.9-1.1-0.9h-1.8v-1.4h1.8c0.5,0,1.1,0,1.1-0.4v-0.1c0-0.4-0.6-0.9-1.1-0.9h-1.3l2.5-2.3
	C-462,184.8-461.9,184.6-462.2,184.3"/>
</svg>
