<?xml version="1.0" encoding="utf-8"?>
<!-- Generator: Adobe Illustrator 19.0.0, SVG Export Plug-In . SVG Version: 6.00 Build 0)  -->
<svg version="1.1" id="图层_1" xmlns="http://www.w3.org/2000/svg" xmlns:xlink="http://www.w3.org/1999/xlink" x="0px" y="0px"
	 viewBox="-479 186 40 30" style="enable-background:new -479 186 40 30;" xml:space="preserve">
<style type="text/css">
	.st0{fill:#506473;}
</style>
<title>mail</title>
<desc>Created with Sketch.</desc>
<g>
	<g id="Path-31">
		<path class="st0" d="M-442,216h-34c-1.7,0-3-1.3-3-3v-24c0-1.6,1.3-3,3-3h34c1.7,0,3,1.3,3,3v24C-439,214.7-440.3,216-442,216z
			 M-476,188c-0.6,0-1,0.4-1,1v24c0,0.5,0.4,1,1,1h34c0.6,0,1-0.4,1-1v-24c0-0.5-0.5-1-1-1H-476z"/>
	</g>
	<g id="Path-82">
		<path class="st0" d="M-459,205.3c-1.3,0-2.6-0.5-3.5-1.5l-12.2-12.2c-0.4-0.4-0.4-1,0-1.4s1-0.4,1.4,0l12.2,12.2
			c0.6,0.6,1.3,0.9,2.1,0.9c0,0,0,0,0,0c0.8,0,1.5-0.3,2.1-0.9l12.2-12.2c0.4-0.4,1-0.4,1.4,0s0.4,1,0,1.4l-12.2,12.2
			C-456.4,204.8-457.7,205.3-459,205.3C-459,205.3-459,205.3-459,205.3z"/>
	</g>
	<g id="Path-83">
		<path class="st0" d="M-474,207c-0.3,0-0.5-0.1-0.7-0.3c-0.4-0.4-0.4-1,0-1.4l7-7c0.4-0.4,1-0.4,1.4,0s0.4,1,0,1.4l-7,7
			C-473.5,206.9-473.7,207-474,207z"/>
	</g>
	<g id="Path-83-Copy">
		<path class="st0" d="M-444,207c-0.3,0-0.5-0.1-0.7-0.3l-7-7c-0.4-0.4-0.4-1,0-1.4s1-0.4,1.4,0l7,7c0.4,0.4,0.4,1,0,1.4
			C-443.5,206.9-443.7,207-444,207z"/>
	</g>
</g>
</svg>
