<?xml version="1.0" encoding="utf-8"?>
<!-- Generator: Adobe Illustrator 19.0.0, SVG Export Plug-In . SVG Version: 6.00 Build 0)  -->
<svg version="1.1" id="图层_1" xmlns="http://www.w3.org/2000/svg" xmlns:xlink="http://www.w3.org/1999/xlink" x="0px" y="0px"
	 viewBox="-479 182 40 38" style="enable-background:new -479 182 40 38;" xml:space="preserve">
<style type="text/css">
	.st0{fill:#506473;}
</style>
<title>payment date</title>
<desc>Created with Sketch.</desc>
<g>
	<path id="Shape" class="st0" d="M-466.9,190.4h0.5c0.8,0,1.3-0.4,1.3-1.1V184c0-0.7-0.5-1.1-1.3-1.1h-0.5c-0.8,0-1.3,0.4-1.3,1.1
		v5.5C-468.2,190-467.7,190.4-466.9,190.4"/>
	<path id="Shape_1_" class="st0" d="M-451.6,190.4h0.5c0.8,0,1.3-0.4,1.3-1.1V184c0-0.7-0.5-1.1-1.3-1.1h-0.5
		c-0.8,0-1.3,0.4-1.3,1.1v5.5C-452.9,190-452.1,190.4-451.6,190.4"/>
	<path id="Shape_2_" class="st0" d="M-444.1,216.9h-30.1c-1.5,0-2.8-1.2-2.8-2.7v-19.1h36V214C-441,215.7-442.3,216.9-444.1,216.9
		 M-444.5,185.9h-3.2v2.1h3.2c1.5,0,2.7,1.2,2.7,2.6v2.4h-35v-2.4c0-1.4,1.2-2.6,2.7-2.6h3.2v-2.1h-3c-3,0-5.2,2.4-5.2,5V214
		c0,2.6,2.2,5,5.2,5h29.5c2.7,0,5.2-2.1,5.2-5v-23.1C-439.3,188.3-441.5,185.9-444.5,185.9"/>
	<polygon id="Shape_3_" class="st0" points="-463.6,188.1 -454.4,188.1 -454.4,185.9 -463.6,185.9 	"/>
	<path id="Rectangle-16" class="st0" d="M-471,199.5h3c0.6,0,1,0.4,1,1v1.9c0,0.6-0.4,1-1,1h-3c-0.6,0-1-0.4-1-1v-1.9
		C-472,200-471.6,199.5-471,199.5z"/>
	<path id="Rectangle-16-Copy-3" class="st0" d="M-471,206.4h3c0.6,0,1,0.4,1,1v1.9c0,0.6-0.4,1-1,1h-3c-0.6,0-1-0.4-1-1v-1.9
		C-472,206.8-471.6,206.4-471,206.4z"/>
	<path id="Rectangle-16-Copy" class="st0" d="M-461,199.5h3c0.6,0,1,0.4,1,1v1.9c0,0.6-0.4,1-1,1h-3c-0.6,0-1-0.4-1-1v-1.9
		C-462,200-461.6,199.5-461,199.5z"/>
	<path id="Rectangle-16-Copy-4" class="st0" d="M-461,206.4h3c0.6,0,1,0.4,1,1v1.9c0,0.6-0.4,1-1,1h-3c-0.6,0-1-0.4-1-1v-1.9
		C-462,206.8-461.6,206.4-461,206.4z"/>
	<path id="Rectangle-16-Copy-2" class="st0" d="M-451,199.5h3c0.6,0,1,0.4,1,1v1.9c0,0.6-0.4,1-1,1h-3c-0.6,0-1-0.4-1-1v-1.9
		C-452,200-451.6,199.5-451,199.5z"/>
</g>
</svg>
