<?xml version="1.0" encoding="utf-8"?>
<!-- Generator: Adobe Illustrator 19.0.0, SVG Export Plug-In . SVG Version: 6.00 Build 0)  -->
<svg version="1.1" id="图层_1" xmlns="http://www.w3.org/2000/svg" xmlns:xlink="http://www.w3.org/1999/xlink" x="0px" y="0px"
	 viewBox="-481 180 37 42" style="enable-background:new -481 180 37 42;" xml:space="preserve">
<style type="text/css">
	.st0{fill:#506473;}
</style>
<title>red packet</title>
<desc>Created with Sketch.</desc>
<path class="st0" d="M-449.1,180h-26.9c-2.7,0-4.9,2.3-4.9,5.2v31.4c0,2.9,2.2,5.2,4.9,5.2h26.9c2.7,0,4.9-2.3,4.9-5.2v-31.4
	C-444.1,182.4-446.3,180-449.1,180z M-446.3,215.9c0,2-1.5,3.5-3.4,3.5h-25.6c-1.8,0-3.4-1.6-3.4-3.5v-22.1c1.2,1.4,3.1,3,5.8,4.2
	c0.5,5.1,4.8,9.1,10,9.1c5.3,0,9.6-4.1,10.1-9.3c3-1.3,5.1-3.1,6.5-4.5V215.9z M-471.1,197c0-0.1,0-0.2,0-0.4
	c0.2-4.3,3.8-7.7,8.2-7.7c4.3,0,7.9,3.3,8.2,7.5c0,0.2,0,0.4,0,0.6c0,0.5-0.1,1.1-0.2,1.6c-0.8,3.6-4.1,6.4-8,6.4
	c-3.9,0-7.1-2.7-8-6.2C-471,198.2-471.1,197.6-471.1,197z M-446.3,190.7c-1.1,1.3-3.2,3.3-6.5,5c-0.6-4.9-4.9-8.8-10-8.8
	c-5.2,0-9.4,3.9-10,8.9c-3-1.5-4.8-3.5-5.8-4.8v-5c0-2,1.5-3.5,3.4-3.5h25.6c1.9,0,3.4,1.6,3.4,3.5V190.7z"/>
<path id="Combined-Shape" class="st0" d="M-461.8,196.7h3.2l0,0c0.4,0,0.7-0.3,0.7-0.7s-0.3-0.7-0.7-0.7h-2.3l2.6-2.8
	c0.3-0.3,0.3-0.8,0-1.1c-0.3-0.3-0.7-0.3-1,0l-3.3,3.5l-3.3-3.3c-0.2-0.2-0.4-0.3-0.7-0.2c-0.2,0.1-0.4,0.3-0.5,0.5s0,0.5,0.2,0.7
	l2.6,2.6h-2.2c-0.4,0-0.7,0.3-0.7,0.7s0.3,0.7,0.7,0.7h3.2v1.5h-3.2c-0.4,0-0.7,0.3-0.7,0.7s0.3,0.7,0.7,0.7h3.2v2.9
	c0,0.2,0.1,0.4,0.2,0.5s0.3,0.2,0.5,0.2l0,0c0.2,0,0.4-0.1,0.5-0.2s0.2-0.3,0.2-0.5v-2.9h3.2c0.4,0,0.7-0.3,0.7-0.7
	s-0.3-0.7-0.7-0.7h-3.2V196.7z"/>
</svg>
