<?xml version="1.0" encoding="utf-8"?>
<!-- Generator: Adobe Illustrator 19.0.0, SVG Export Plug-In . SVG Version: 6.00 Build 0)  -->
<svg version="1.1" id="图层_1" xmlns="http://www.w3.org/2000/svg" xmlns:xlink="http://www.w3.org/1999/xlink" x="0px" y="0px"
	 viewBox="-480 181 38 40" style="enable-background:new -480 181 38 40;" xml:space="preserve">
<style type="text/css">
	.st0{fill:#506473;}
</style>
<title>set</title>
<desc>Created with Sketch.</desc>
<g id="Rectangle-15">
	<path class="st0" d="M-459,221h-4c-1.6,0-3-1.3-3.2-2.9l-0.2-2c-1.8-0.6-3.5-1.6-4.9-2.9l-1.9,0.8c-1.5,0.7-3.3,0.1-4.1-1.3l-2-3.5
		c-0.8-1.4-0.4-3.3,0.9-4.2l1.7-1.2c-0.2-0.9-0.3-1.9-0.3-2.9s0.1-1.9,0.3-2.9l-1.7-1.2c-1.3-1-1.7-2.8-0.9-4.2l2-3.5
		c0.8-1.4,2.6-2,4.1-1.3l1.9,0.8c1.5-1.2,3.2-2.2,4.9-2.9l0.2-2c0.2-1.6,1.6-2.9,3.2-2.9h4c1.6,0,3,1.3,3.2,2.9l0.2,2
		c1.8,0.6,3.5,1.6,4.9,2.9l1.9-0.8c1.5-0.7,3.3-0.1,4.1,1.3l2,3.5c0.8,1.4,0.4,3.3-0.9,4.2l-1.7,1.2c0.2,0.9,0.3,1.9,0.3,2.9
		s-0.1,1.9-0.3,2.9l1.7,1.2c1.3,1,1.7,2.8,0.9,4.2l-2,3.5c-0.8,1.4-2.6,2-4.1,1.3l-1.9-0.8c-1.5,1.2-3.2,2.2-4.9,2.9l-0.2,2
		C-456,219.7-457.4,221-459,221z M-471,210.8l0.5,0.4c1.5,1.4,3.4,2.5,5.3,3.1l0.6,0.2l0.3,3.3c0.1,0.6,0.6,1.1,1.2,1.1h4
		c0.6,0,1.1-0.5,1.2-1.1l0.3-3.3l0.6-0.2c2-0.6,3.8-1.7,5.3-3.1l0.5-0.4l3.1,1.4c0.5,0.2,1.3,0,1.6-0.5l2-3.5
		c0.3-0.5,0.1-1.2-0.3-1.6l-2.7-2l0.1-0.6c0.2-1,0.3-2,0.3-3.1c0-1-0.1-2.1-0.3-3.1l-0.1-0.6l2.7-2c0.5-0.3,0.6-1.1,0.4-1.6l-2-3.5
		c-0.3-0.5-1-0.7-1.6-0.5l-3.1,1.4l-0.5-0.4c-1.5-1.4-3.4-2.5-5.3-3.1l-0.6-0.2l-0.3-3.3c-0.1-0.6-0.6-1.1-1.2-1.1h-4
		c-0.6,0-1.1,0.5-1.2,1.1l-0.3,3.3l-0.6,0.2c-2,0.6-3.8,1.7-5.3,3.1l-0.5,0.4l-3.1-1.4c-0.5-0.2-1.3,0-1.6,0.5l-2,3.5
		c-0.3,0.5-0.1,1.2,0.4,1.6l2.7,2l-0.1,0.6c-0.2,1-0.3,2-0.3,3.1c0,1,0.1,2.1,0.3,3.1l0.1,0.6l-2.7,2c-0.5,0.3-0.6,1.1-0.4,1.6
		l2,3.5c0.3,0.5,1,0.7,1.6,0.5L-471,210.8z"/>
</g>
<g id="Oval-2">
	<path class="st0" d="M-461,209c-4.4,0-8-3.6-8-8s3.6-8,8-8s8,3.6,8,8S-456.6,209-461,209z M-461,195c-3.3,0-6,2.7-6,6s2.7,6,6,6
		s6-2.7,6-6S-457.7,195-461,195z"/>
</g>
</svg>
