<?xml version="1.0" encoding="utf-8"?>
<!-- Generator: Adobe Illustrator 19.0.0, SVG Export Plug-In . SVG Version: 6.00 Build 0)  -->
<svg version="1.1" id="图层_1" xmlns="http://www.w3.org/2000/svg" xmlns:xlink="http://www.w3.org/1999/xlink" x="0px" y="0px"
	 viewBox="-481 180 36 41" style="enable-background:new -481 180 36 41;" xml:space="preserve">
<style type="text/css">
	.st0{fill:#506473;}
</style>
<title>trade history</title>
<desc>Created with Sketch.</desc>
<g>
	<path class="st0" d="M-450.6,215.4v-23.3c0-0.3-0.1-0.6-0.3-0.8l-9.9-10.1c-0.2-0.2-0.5-0.3-0.8-0.3h-17.8c-0.6,0-1.1,0.5-1.1,1.1
		v33.4c0,0.6,0.5,1.1,1.1,1.1h27.7C-451.1,216.5-450.6,216-450.6,215.4z M-460.5,184.7l6.2,6.3h-6.2V184.7z M-478.3,214.3v-31.2
		h15.6v9c0,0.6,0.5,1.1,1.1,1.1h8.8v21.1H-478.3z"/>
	<path class="st0" d="M-473.4,195.4h5.9c0.6,0,1.1-0.5,1.1-1.1s-0.5-1.1-1.1-1.1h-5.9c-0.6,0-1.1,0.5-1.1,1.1
		S-474.1,195.4-473.4,195.4z"/>
	<path class="st0" d="M-457.6,199.2h-15.8c-0.6,0-1.1,0.5-1.1,1.1s0.5,1.1,1.1,1.1h15.8c0.6,0,1.1-0.5,1.1-1.1
		S-457,199.2-457.6,199.2z"/>
	<path class="st0" d="M-445.5,191.1c0-0.4-0.3-0.8-0.6-1l-8.7-8.9c-0.4-0.4-1.1-0.4-1.6,0c-0.4,0.4-0.4,1.1,0,1.6l8.7,8.9v26.8
		h-25.7c-0.6,0-1.1,0.5-1.1,1.1s0.5,1.1,1.1,1.1h26.7c0.6,0,1.1-0.5,1.1-1.1c0,0,0-0.1,0-0.1c0.1-0.1,0.1-0.3,0.1-0.5V191.1z"/>
	<path class="st0" d="M-457.6,205.3h-15.8c-0.6,0-1.1,0.5-1.1,1.1s0.5,1.1,1.1,1.1h15.8c0.6,0,1.1-0.5,1.1-1.1
		S-457,205.3-457.6,205.3z"/>
</g>
</svg>
