<?xml version="1.0" encoding="utf-8"?>
<!-- Generator: Adobe Illustrator 19.0.0, SVG Export Plug-In . SVG Version: 6.00 Build 0)  -->
<svg version="1.1" id="图层_1" xmlns="http://www.w3.org/2000/svg" xmlns:xlink="http://www.w3.org/1999/xlink" x="0px" y="0px"
	 viewBox="-480 182 38 38" style="enable-background:new -480 182 38 38;" xml:space="preserve">
<style type="text/css">
	.st0{fill:#506473;}
</style>
<title>update</title>
<desc>Created with Sketch.</desc>
<g id="update" transform="translate(824.000000, 1895.000000)">
	<path id="Fill-1" class="st0" d="M-1270.3-1687.1h-6.9c-0.6,0-1.2-0.5-1.2-1.2c0-0.6,0.5-1.2,1.2-1.2h7.8l2.5,0
		c0,0,0.3,0.1,0.5,0.5c0.1,0.2,0.1,0.7,0.1,0.8v9.6c0,0.6-0.5,1.2-1.2,1.2s-1.2-0.5-1.2-1.2v-6.6c-3.2,5.7-9.2,9.6-16.3,9.6
		c-9.5,0-17.3-7.1-18.4-16.2h2.4c1.1,7.8,7.9,13.9,16.1,13.9C-1278.5-1677.8-1273-1681.6-1270.3-1687.1z M-1268.9-1696.3
		c-1.1-7.8-7.9-13.9-16-13.9c-6.5,0-12,3.8-14.7,9.3h6.9c0.6,0,1.2,0.5,1.2,1.2c0,0.6-0.5,1.2-1.2,1.2h-7.8h-2.5c0,0,0-0.1,0-0.1
		c-0.2-0.1-0.3-0.2-0.4-0.4c0,0-0.1-0.1-0.1-0.1c-0.1-0.1-0.1-0.3-0.1-0.4c0-0.1,0-0.1,0-0.2c0,0,0-0.1,0-0.1v-9.6
		c0-0.6,0.5-1.2,1.2-1.2c0.6,0,1.2,0.5,1.2,1.2v6.6c3.2-5.7,9.2-9.6,16.3-9.6c9.5,0,17.3,7.1,18.5,16.2H-1268.9z"/>
</g>
</svg>
